<svg width="18" height="18" viewBox="0 0 18 18" fill="none" xmlns="http://www.w3.org/2000/svg">
<path d="M9.00001 17.1666C7.3848 17.1666 5.80586 16.6876 4.46286 15.7903C3.11986 14.8929 2.07311 13.6174 1.455 12.1252C0.836882 10.6329 0.675155 8.99086 0.990267 7.40669C1.30538 5.82251 2.08318 4.36735 3.22531 3.22522C4.36744 2.08309 5.8226 1.30529 7.40678 0.990176C8.99096 0.675063 10.633 0.83679 12.1253 1.45491C13.6175 2.07302 14.893 3.11976 15.7903 4.46277C16.6877 5.80577 17.1667 7.38471 17.1667 8.99992C17.1642 11.1651 16.303 13.2409 14.772 14.7719C13.241 16.3029 11.1652 17.1641 9.00001 17.1666ZM9.00001 3.16659C7.45292 3.16659 5.96919 3.78117 4.87522 4.87513C3.78126 5.9691 3.16668 7.45283 3.16668 8.99992C3.16668 10.547 3.78126 12.0308 4.87522 13.1247C5.96919 14.2187 7.45292 14.8333 9.00001 14.8333C10.5471 14.8333 12.0308 14.2187 13.1248 13.1247C14.2188 12.0308 14.8333 10.547 14.8333 8.99992C14.8333 7.45283 14.2188 5.9691 13.1248 4.87513C12.0308 3.78117 10.5471 3.16659 9.00001 3.16659ZM9.00001 12.4999C8.07176 12.4999 7.18152 12.1312 6.52514 11.4748C5.86876 10.8184 5.50001 9.92818 5.50001 8.99992C5.50001 8.07167 5.86876 7.18143 6.52514 6.52505C7.18152 5.86867 8.07176 5.49992 9.00001 5.49992C9.92827 5.49992 10.8185 5.86867 11.4749 6.52505C12.1313 7.18143 12.5 8.07167 12.5 8.99992C12.5 9.92818 12.1313 10.8184 11.4749 11.4748C10.8185 12.1312 9.92827 12.4999 9.00001 12.4999Z" fill="#02A75A"/>
</svg>
