<svg width="95" height="84" viewBox="0 0 95 84" fill="none" xmlns="http://www.w3.org/2000/svg">
<path d="M30.9408 32.7998C30.9408 33.3937 30.9408 33.9876 30.9408 34.5815C30.9341 49.7751 30.9308 64.9721 30.9241 80.1657C30.9241 82.4977 28.6189 84.2493 26.2868 83.9708C23.9279 83.6923 21.5321 83.6285 19.1531 83.642C17.9115 83.6487 17.3042 83.4373 17.3109 82.0347C17.3478 76.5686 17.3075 71.1025 17.2807 65.6365C17.2371 56.8686 17.2002 48.1008 17.1062 39.3295C17.0928 38.0612 17.1935 37.2022 18.7739 37.1082C19.4752 37.0646 20.2604 36.6082 20.7972 36.1116C22.0656 34.9372 23.4783 34.3332 25.1996 34.4708C27.2364 34.6352 29.2899 34.8399 30.4644 32.3233C30.6254 32.4877 30.7831 32.6454 30.9408 32.7998Z" fill="white"/>
<path d="M13.8615 38.0074C13.8615 52.936 13.8615 67.6162 13.8615 82.689C12.4589 81.7293 11.3281 80.9609 10.204 80.1824C8.14377 78.753 6.13719 77.2363 4.00982 75.9109C3.01324 75.2868 2.88574 74.5184 2.90252 73.5252C2.95285 70.6797 3.00654 67.8309 2.99312 64.9855C2.98641 63.5393 2.98305 62.0561 1.08049 61.5629C0.744947 61.4756 0.37585 60.724 0.372494 60.2744C0.322162 55.1372 0.359068 49.9999 0.325513 44.8627C0.318802 43.8091 0.771781 43.4534 1.74151 43.5473C1.90929 43.5641 2.08043 43.5306 2.2415 43.5608C7.00292 44.4466 10.3517 42.2521 13.0461 38.6148C13.1938 38.4235 13.4488 38.3128 13.8615 38.0074Z" fill="white"/>
<path d="M33.5849 80.5818C33.5447 79.7899 33.4876 79.2027 33.4876 78.6121C33.4843 63.0796 33.501 47.5471 33.4541 32.0146C33.4507 30.6724 33.9138 30.1121 35.1083 29.555C36.7558 28.79 38.2188 27.6324 39.7489 26.619C40.3328 26.2331 40.8797 25.7835 41.6817 25.1795C41.7522 25.9748 41.8293 26.4445 41.8293 26.9176C41.8327 39.4906 41.826 52.0602 41.8361 64.6332C41.8361 65.66 41.7119 66.4988 40.8562 67.3109C40.3126 67.8242 39.9972 68.9752 40.1315 69.7436C40.8663 73.9144 38.645 76.6424 35.8365 79.1389C35.3801 79.5449 34.8701 79.8939 34.3735 80.2563C34.2426 80.3469 34.0715 80.3838 33.5849 80.5818Z" fill="white"/>
<path d="M0 39.8229C10.6469 35.2561 20.6865 29.733 29.2396 21.6094C28.4981 20.794 27.8706 20.1061 27.0787 19.2337C30.4375 18.3814 33.6185 17.5727 37.2223 16.66C36.2828 20.0893 35.4104 23.2804 34.5379 26.4714C34.2896 26.4278 34.1621 26.4446 34.1017 26.3876C32.2528 24.7199 32.2528 24.7165 30.0785 26.2298C23.7199 30.649 16.9754 34.3568 9.72418 37.0781C6.59017 38.2525 3.37226 39.2021 0.194623 40.2557C0.124158 40.1081 0.063754 39.9672 0 39.8229Z" fill="black"/>
<path d="M44.2119 65.2171C44.2119 64.7909 44.2119 64.3614 44.2119 63.9353C44.2119 50.8523 44.1984 37.7726 44.2454 24.6896C44.2488 24.042 44.581 23.1092 45.0709 22.8005C46.611 21.8308 47.4465 22.3777 47.4465 24.1796C47.4532 31.4475 47.6311 38.7222 47.3895 45.9801C47.2016 51.6509 46.5238 57.3082 45.9567 62.9622C45.8728 63.8044 45.195 64.5862 44.7924 65.3949C44.6011 65.3345 44.4065 65.2741 44.2119 65.2171Z" fill="black"/>
<path d="M46.9936 17.1834C47.3694 15.4788 48.0069 14.1064 46.4734 13.0125C46.2889 12.8817 46.507 12.1904 46.5238 11.7609C46.5976 10.1033 47.0841 8.38532 45.7722 6.84851C45.0977 10.1939 40.853 12.5931 43.5441 16.7841C39.4605 15.1768 38.5143 11.9086 41.0745 8.69737C42.2221 7.26123 43.5072 5.93247 44.6179 4.46948C45.2755 3.60377 45.7185 2.57363 46.3191 1.50323C47.9599 2.48303 48.631 4.13392 48.6948 5.90897C48.7585 7.64375 48.4029 9.39531 48.1915 11.5294C48.8626 10.8113 49.3457 10.2946 49.9162 9.68388C51.1174 10.3046 51.4798 11.469 51.359 12.687C51.1208 15.16 49.1243 16.0593 46.9936 17.1834Z" fill="white"/>
<path d="M38.3866 10.4422C37.9538 8.54975 38.6953 7.08005 39.9637 5.78148C41.8495 3.84872 43.7084 1.88913 45.5237 0C44.5876 4.30508 39.8798 6.29152 38.3866 10.4422Z" fill="black"/>
<path d="M48.8692 17.8847C52.8018 14.952 53.228 13.9822 52.1072 10.0664C53.5602 11.2408 54.3017 12.7239 53.7212 14.3681C52.9461 16.5525 50.859 17.2605 48.8692 17.8847Z" fill="black"/>
<path d="M50.4798 6.50298C49.7282 4.77491 48.9262 2.92939 48.2652 1.40265C50.4328 2.76833 51.1945 4.43265 50.4798 6.50298Z" fill="black"/>
<path d="M52.1159 30.2H51.1959V29.4H53.9159V30.2H52.9959V35H52.1159V30.2ZM54.502 29.4H55.382V31.68H56.326V29.4H57.206V35H56.326V32.48H55.382V35H54.502V29.4ZM58.0214 29.4H60.4214V30.2H58.9014V31.68H60.1094V32.48H58.9014V34.2H60.4214V35H58.0214V29.4ZM51.4279 40.4H52.3079V46H51.4279V40.4ZM53.127 40.4H54.383L54.943 44.408H54.959L55.519 40.4H56.775V46H55.943V41.76H55.927L55.287 46H54.551L53.911 41.76H53.895V46H53.127V40.4ZM58.8637 46.08C58.4317 46.08 58.101 45.9573 57.8717 45.712C57.6423 45.4667 57.5277 45.12 57.5277 44.672V41.728C57.5277 41.28 57.6423 40.9333 57.8717 40.688C58.101 40.4427 58.4317 40.32 58.8637 40.32C59.2957 40.32 59.6263 40.4427 59.8557 40.688C60.085 40.9333 60.1997 41.28 60.1997 41.728V44.672C60.1997 45.12 60.085 45.4667 59.8557 45.712C59.6263 45.9573 59.2957 46.08 58.8637 46.08ZM58.8637 45.28C59.1677 45.28 59.3197 45.096 59.3197 44.728V41.672C59.3197 41.304 59.1677 41.12 58.8637 41.12C58.5597 41.12 58.4077 41.304 58.4077 41.672V44.728C58.4077 45.096 58.5597 45.28 58.8637 45.28ZM51.4279 51.4H53.8279V52.2H52.3079V53.68H53.5159V54.48H52.3079V56.2H53.8279V57H51.4279V51.4ZM55.7342 57.08C55.3128 57.08 54.9902 56.96 54.7662 56.72C54.5475 56.48 54.4382 56.1413 54.4382 55.704V52.696C54.4382 52.2587 54.5475 51.92 54.7662 51.68C54.9902 51.44 55.3128 51.32 55.7342 51.32C56.1555 51.32 56.4755 51.44 56.6942 51.68C56.9182 51.92 57.0302 52.2587 57.0302 52.696V53.288H56.1982V52.64C56.1982 52.2933 56.0515 52.12 55.7582 52.12C55.4648 52.12 55.3182 52.2933 55.3182 52.64V55.768C55.3182 56.1093 55.4648 56.28 55.7582 56.28C56.0515 56.28 56.1982 56.1093 56.1982 55.768V54.912H57.0302V55.704C57.0302 56.1413 56.9182 56.48 56.6942 56.72C56.4755 56.96 56.1555 57.08 55.7342 57.08ZM59.0043 57.08C58.5723 57.08 58.2416 56.9573 58.0123 56.712C57.783 56.4667 57.6683 56.12 57.6683 55.672V52.728C57.6683 52.28 57.783 51.9333 58.0123 51.688C58.2416 51.4427 58.5723 51.32 59.0043 51.32C59.4363 51.32 59.767 51.4427 59.9963 51.688C60.2256 51.9333 60.3403 52.28 60.3403 52.728V55.672C60.3403 56.12 60.2256 56.4667 59.9963 56.712C59.767 56.9573 59.4363 57.08 59.0043 57.08ZM59.0043 56.28C59.3083 56.28 59.4603 56.096 59.4603 55.728V52.672C59.4603 52.304 59.3083 52.12 59.0043 52.12C58.7003 52.12 58.5483 52.304 58.5483 52.672V55.728C58.5483 56.096 58.7003 56.28 59.0043 56.28ZM61.0954 51.4H62.1994L63.0554 54.752H63.0714V51.4H63.8554V57H62.9514L61.8954 52.912H61.8794V57H61.0954V51.4ZM65.9415 57.08C65.5095 57.08 65.1788 56.9573 64.9495 56.712C64.7201 56.4667 64.6055 56.12 64.6055 55.672V52.728C64.6055 52.28 64.7201 51.9333 64.9495 51.688C65.1788 51.4427 65.5095 51.32 65.9415 51.32C66.3735 51.32 66.7041 51.4427 66.9335 51.688C67.1628 51.9333 67.2775 52.28 67.2775 52.728V55.672C67.2775 56.12 67.1628 56.4667 66.9335 56.712C66.7041 56.9573 66.3735 57.08 65.9415 57.08ZM65.9415 56.28C66.2455 56.28 66.3975 56.096 66.3975 55.728V52.672C66.3975 52.304 66.2455 52.12 65.9415 52.12C65.6375 52.12 65.4855 52.304 65.4855 52.672V55.728C65.4855 56.096 65.6375 56.28 65.9415 56.28ZM68.0326 51.4H69.2886L69.8486 55.408H69.8646L70.4246 51.4H71.6806V57H70.8486V52.76H70.8326L70.1926 57H69.4566L68.8166 52.76H68.8006V57H68.0326V51.4ZM72.4973 51.4H73.3773V57H72.4973V51.4ZM75.4364 57.08C75.015 57.08 74.6924 56.96 74.4684 56.72C74.2497 56.48 74.1404 56.1413 74.1404 55.704V52.696C74.1404 52.2587 74.2497 51.92 74.4684 51.68C74.6924 51.44 75.015 51.32 75.4364 51.32C75.8577 51.32 76.1777 51.44 76.3964 51.68C76.6204 51.92 76.7324 52.2587 76.7324 52.696V53.288H75.9004V52.64C75.9004 52.2933 75.7537 52.12 75.4604 52.12C75.167 52.12 75.0204 52.2933 75.0204 52.64V55.768C75.0204 56.1093 75.167 56.28 75.4604 56.28C75.7537 56.28 75.9004 56.1093 75.9004 55.768V54.912H76.7324V55.704C76.7324 56.1413 76.6204 56.48 76.3964 56.72C76.1777 56.96 75.8577 57.08 75.4364 57.08ZM52.5719 68.08C52.1452 68.08 51.8226 67.96 51.6039 67.72C51.3852 67.4747 51.2759 67.1253 51.2759 66.672V66.352H52.1079V66.736C52.1079 67.0987 52.2599 67.28 52.5639 67.28C52.7132 67.28 52.8252 67.2373 52.8999 67.152C52.9799 67.0613 53.0199 66.9173 53.0199 66.72C53.0199 66.4853 52.9666 66.28 52.8599 66.104C52.7532 65.9227 52.5559 65.7067 52.2679 65.456C51.9052 65.136 51.6519 64.848 51.5079 64.592C51.3639 64.3307 51.2919 64.0373 51.2919 63.712C51.2919 63.2693 51.4039 62.928 51.6279 62.688C51.8519 62.4427 52.1772 62.32 52.6039 62.32C53.0252 62.32 53.3426 62.4427 53.5559 62.688C53.7746 62.928 53.8839 63.2747 53.8839 63.728V63.96H53.0519V63.672C53.0519 63.48 53.0146 63.3413 52.9399 63.256C52.8652 63.1653 52.7559 63.12 52.6119 63.12C52.3186 63.12 52.1719 63.2987 52.1719 63.656C52.1719 63.8587 52.2252 64.048 52.3319 64.224C52.4439 64.4 52.6439 64.6133 52.9319 64.864C53.2999 65.184 53.5532 65.4747 53.6919 65.736C53.8306 65.9973 53.8999 66.304 53.8999 66.656C53.8999 67.1147 53.7852 67.4667 53.5559 67.712C53.3319 67.9573 53.0039 68.08 52.5719 68.08ZM55.8445 68.08C55.4178 68.08 55.0925 67.96 54.8685 67.72C54.6445 67.4747 54.5325 67.1253 54.5325 66.672V62.4H55.4125V66.736C55.4125 66.928 55.4498 67.0667 55.5245 67.152C55.6045 67.2373 55.7165 67.28 55.8605 67.28C56.0045 67.28 56.1138 67.2373 56.1885 67.152C56.2685 67.0667 56.3085 66.928 56.3085 66.736V62.4H57.1565V66.672C57.1565 67.1253 57.0445 67.4747 56.8205 67.72C56.5965 67.96 56.2711 68.08 55.8445 68.08ZM57.9432 62.4H59.1992L59.7592 66.408H59.7752L60.3352 62.4H61.5912V68H60.7592V63.76H60.7432L60.1032 68H59.3672L58.7272 63.76H58.7112V68H57.9432V62.4ZM62.4079 62.4H63.6639L64.2239 66.408H64.2399L64.7999 62.4H66.0559V68H65.2239V63.76H65.2079L64.5679 68H63.8319L63.1919 63.76H63.1759V68H62.4079V62.4ZM66.8726 62.4H67.7526V68H66.8726V62.4ZM69.2597 63.2H68.3397V62.4H71.0597V63.2H70.1397V68H69.2597V63.2ZM52.6759 79.08C52.2492 79.08 51.9239 78.96 51.6999 78.72C51.4759 78.4747 51.3639 78.1253 51.3639 77.672V74.728C51.3639 74.2747 51.4759 73.928 51.6999 73.688C51.9239 73.4427 52.2492 73.32 52.6759 73.32C53.1026 73.32 53.4279 73.4427 53.6519 73.688C53.8759 73.928 53.9879 74.2747 53.9879 74.728V75.208H53.1559V74.672C53.1559 74.304 53.0039 74.12 52.6999 74.12C52.3959 74.12 52.2439 74.304 52.2439 74.672V77.736C52.2439 78.0987 52.3959 78.28 52.6999 78.28C53.0039 78.28 53.1559 78.0987 53.1559 77.736V76.64H52.7159V75.84H53.9879V77.672C53.9879 78.1253 53.8759 78.4747 53.6519 78.72C53.4279 78.96 53.1026 79.08 52.6759 79.08ZM54.7129 73.4H56.0169C56.4702 73.4 56.8009 73.5067 57.0089 73.72C57.2169 73.928 57.3209 74.2507 57.3209 74.688V75.032C57.3209 75.6133 57.1289 75.9813 56.7449 76.136V76.152C56.9582 76.216 57.1076 76.3467 57.1929 76.544C57.2836 76.7413 57.3289 77.0053 57.3289 77.336V78.32C57.3289 78.48 57.3342 78.6107 57.3449 78.712C57.3556 78.808 57.3822 78.904 57.4249 79H56.5289C56.4969 78.9093 56.4756 78.824 56.4649 78.744C56.4542 78.664 56.4489 78.52 56.4489 78.312V77.288C56.4489 77.032 56.4062 76.8533 56.3209 76.752C56.2409 76.6507 56.0996 76.6 55.8969 76.6H55.5929V79H54.7129V73.4ZM55.9129 75.8C56.0889 75.8 56.2196 75.7547 56.3049 75.664C56.3956 75.5733 56.4409 75.4213 56.4409 75.208V74.776C56.4409 74.5733 56.4036 74.4267 56.3289 74.336C56.2596 74.2453 56.1476 74.2 55.9929 74.2H55.5929V75.8H55.9129ZM59.3715 79.08C58.9395 79.08 58.6088 78.9573 58.3795 78.712C58.1501 78.4667 58.0355 78.12 58.0355 77.672V74.728C58.0355 74.28 58.1501 73.9333 58.3795 73.688C58.6088 73.4427 58.9395 73.32 59.3715 73.32C59.8035 73.32 60.1341 73.4427 60.3635 73.688C60.5928 73.9333 60.7075 74.28 60.7075 74.728V77.672C60.7075 78.12 60.5928 78.4667 60.3635 78.712C60.1341 78.9573 59.8035 79.08 59.3715 79.08ZM59.3715 78.28C59.6755 78.28 59.8275 78.096 59.8275 77.728V74.672C59.8275 74.304 59.6755 74.12 59.3715 74.12C59.0675 74.12 58.9155 74.304 58.9155 74.672V77.728C58.9155 78.096 59.0675 78.28 59.3715 78.28ZM62.7426 79.08C62.3159 79.08 61.9906 78.96 61.7666 78.72C61.5426 78.4747 61.4306 78.1253 61.4306 77.672V73.4H62.3106V77.736C62.3106 77.928 62.3479 78.0667 62.4226 78.152C62.5026 78.2373 62.6146 78.28 62.7586 78.28C62.9026 78.28 63.0119 78.2373 63.0866 78.152C63.1666 78.0667 63.2066 77.928 63.2066 77.736V73.4H64.0546V77.672C64.0546 78.1253 63.9426 78.4747 63.7186 78.72C63.4946 78.96 63.1693 79.08 62.7426 79.08ZM64.8414 73.4H66.1374C66.5747 73.4 66.9027 73.5173 67.1214 73.752C67.34 73.9867 67.4494 74.3307 67.4494 74.784V75.336C67.4494 75.7893 67.34 76.1333 67.1214 76.368C66.9027 76.6027 66.5747 76.72 66.1374 76.72H65.7214V79H64.8414V73.4ZM66.1374 75.92C66.2814 75.92 66.388 75.88 66.4574 75.8C66.532 75.72 66.5694 75.584 66.5694 75.392V74.728C66.5694 74.536 66.532 74.4 66.4574 74.32C66.388 74.24 66.2814 74.2 66.1374 74.2H65.7214V75.92H66.1374Z" fill="black"/>
</svg>
