<svg width="44" height="44" viewBox="0 0 44 44" fill="none" xmlns="http://www.w3.org/2000/svg">
<path d="M37.0456 15.889V15.4979C36.9622 12.1869 35.5724 9.04329 33.1794 6.75339C30.7865 4.4635 27.5848 3.21328 24.2733 3.27566C21.8071 3.25554 19.3876 3.94852 17.306 5.27122C15.2244 6.59392 13.5693 8.48997 12.54 10.7312C9.64188 11.0545 6.96322 12.4303 5.0122 14.5976C3.06117 16.7649 1.97352 19.5729 1.95557 22.489C1.95877 24.0341 2.26648 25.5634 2.86109 26.9895C3.4557 28.4156 4.32556 29.7105 5.42094 30.8002C6.51631 31.8899 7.81573 32.753 9.24489 33.3402C10.674 33.9274 12.2049 34.2272 13.75 34.2223H18.3333V31.7779H13.75C11.3876 31.65 9.16154 30.6314 7.52045 28.9272C5.87937 27.2231 4.94531 24.9602 4.90656 22.5947C4.8678 20.2292 5.72723 17.9369 7.31162 16.1799C8.896 14.423 11.0875 13.3319 13.4445 13.1268H14.2633L14.5445 12.3568C15.3025 10.3879 16.6466 8.69926 18.3953 7.51892C20.1439 6.33859 22.2128 5.7235 24.3222 5.75678C26.9855 5.6942 29.5656 6.68684 31.5001 8.51837C33.4347 10.3499 34.5669 12.8718 34.65 15.5346C34.6668 15.8603 34.6668 16.1866 34.65 16.5123L34.5522 17.3923L35.3467 17.759C36.8832 18.4512 38.1344 19.6516 38.8898 21.1581C39.6452 22.6646 39.8587 24.3853 39.4944 26.0307C39.13 27.6761 38.21 29.1458 36.8892 30.1925C35.5684 31.2392 33.9274 31.7991 32.2422 31.7779H25.6667V34.2223H32.2422C34.4159 34.2379 36.5328 33.5287 38.2584 32.2068C39.9841 30.8849 41.22 29.0257 41.7709 26.9229C42.3218 24.8202 42.1563 22.5938 41.3006 20.5956C40.4449 18.5973 38.9476 16.9413 37.0456 15.889Z" fill="#02A75A"/>
<path d="M27.2313 26.7055C27.4751 26.7094 27.7145 26.6403 27.9187 26.507C28.1229 26.3737 28.2826 26.1825 28.3772 25.9577C28.4719 25.733 28.4971 25.4851 28.4497 25.2459C28.4023 25.0067 28.2845 24.7872 28.1113 24.6155L22.0002 18.5044L15.8891 24.6155C15.6889 24.8493 15.5842 25.1501 15.5961 25.4577C15.608 25.7653 15.7355 26.0571 15.9532 26.2747C16.1709 26.4924 16.4627 26.6199 16.7703 26.6318C17.0779 26.6437 17.3786 26.5391 17.6124 26.3388L20.778 23.2222V38.1944C20.778 38.5186 20.9068 38.8294 21.136 39.0586C21.3652 39.2879 21.6761 39.4166 22.0002 39.4166C22.3244 39.4166 22.6353 39.2879 22.8645 39.0586C23.0937 38.8294 23.2224 38.5186 23.2224 38.1944V23.2222L26.3636 26.3633C26.5962 26.5876 26.9082 26.7106 27.2313 26.7055Z" fill="#02A75A"/>
</svg>
